# xmcd CD database file
#
# Track frame offsets:
#	150
#	12728
#	29770
#	51760
#	67980
#	81118
#	92640
#	110898
#	132875
#	147245
#	158855
#
# Disc length: 2379 seconds
#
# Revision: 3
# Processed by: cddbd v1.5.2PL0 Copyright (c) Steve Scherf et al.
# Submitted via: CDex 1.51
#
DISCID=9a09490b
DTITLE=Howlin' Wolf - The Back Door Wolf
DYEAR=1900
DGENRE=Blues
TTITLE0=Moving
TTITLE1=Coon On The Moon
TTITLE2=Speak Now Woman
TTITLE3=Trying To Forget You
TTITLE4=Stop Using Me
TTITLE5=Leave Here Walking
TTITLE6=The Back Door Wolf
TTITLE7=You Turn Slick On Me
TTITLE8=Watergate Blues
TTITLE9=Can't Stay Here
TTITLE10=Speak Now Woman (Alternate)
EXTD=
EXTT0=
EXTT1=
EXTT2=
EXTT3=
EXTT4=
EXTT5=
EXTT6=
EXTT7=
EXTT8=
EXTT9=
EXTT10=
PLAYORDER=
